<!-- Generated by IcoMoon.io -->
<svg version="1.1" xmlns="http://www.w3.org/2000/svg" width="32" height="32" viewBox="0 0 32 32">
<title>menu-home-normal-active</title>
<path fill="#d4237a" d="M16.041 6.025l10.003 9.144c-0.509 0.063-0.988 0.272-1.369 0.606l-0.012 0.012c-0.369 0.328-0.806 0.906-0.806 1.816v8.516h-3.663v-3.619c0-1.359-1.125-2.462-2.509-2.462h-3.3c-1.384 0-2.509 1.106-2.509 2.462v3.616h-3.619v-8.531c0-1.25-0.953-2.287-2.184-2.444l9.969-9.116zM16.041 4c-0.35 0-0.7 0.119-0.95 0.353l-11.509 10.522c-0.413 0.353-0.531 0.884-0.309 1.369 0.222 0.472 0.694 0.75 1.237 0.75h1.237c0.353 0 0.634 0.266 0.634 0.587v9.169c0 0.678 0.603 1.238 1.341 1.238h4.688c0.738 0 1.341-0.559 1.341-1.238v-4.25c0-0.325 0.281-0.587 0.634-0.587h3.3c0.353 0 0.634 0.266 0.634 0.587v4.253c0 0.678 0.603 1.238 1.356 1.238h4.688c0.753 0 1.372-0.559 1.372-1.238v-9.156c0-0.175 0.044-0.294 0.178-0.413 0.119-0.103 0.281-0.163 0.456-0.163h1.163c0.547 0 1.016-0.294 1.238-0.75 0.25-0.484 0.131-1.031-0.25-1.384l-11.525-10.534c-0.25-0.234-0.603-0.353-0.953-0.353z"></path>
</svg>
