<!-- Generated by IcoMoon.io -->
<svg version="1.1" xmlns="http://www.w3.org/2000/svg" width="32" height="32" viewBox="0 0 32 32">
<title>shop-cart-active</title>
<path fill="#d4237a" d="M27.336 7.333c0 0 0 0 0.001 0 1.839 0 3.33 1.491 3.33 3.33 0 0.002 0 0.004 0 0.006v-0 5.119c0 1.738-1.319 3.361-3.023 3.718l-14.741 3.087c-0.206 0.046-0.443 0.072-0.686 0.072-1.6 0-2.937-1.131-3.254-2.637l-0.004-0.022-3.374-16.005h-2.919c-0 0-0 0-0 0-0.736 0-1.333-0.597-1.333-1.333s0.597-1.333 1.333-1.333c0 0 0 0 0 0h4c0 0 0 0 0 0 0.639 0 1.173 0.449 1.303 1.049l0.002 0.009 1.042 4.942h18.323zM11.571 19.467c0.062 0.305 0.327 0.531 0.646 0.531 0.050 0 0.098-0.005 0.144-0.016l-0.004 0.001 14.741-3.087c0.469-0.098 0.903-0.633 0.903-1.109v-5.119c0-0.001 0-0.003 0-0.005 0-0.366-0.297-0.663-0.663-0.663-0 0-0 0-0.001 0h-17.703l1.937 9.467zM11 30.667c-1.657 0-3-1.343-3-3s1.343-3 3-3v0c1.657 0 3 1.343 3 3s-1.343 3-3 3v0zM24.333 30.667c-1.657 0-3-1.343-3-3s1.343-3 3-3v0c1.657 0 3 1.343 3 3s-1.343 3-3 3v0z"></path>
</svg>
