<!-- Generated by IcoMoon.io -->
<svg version="1.1" xmlns="http://www.w3.org/2000/svg" width="32" height="32" viewBox="0 0 32 32">
<title>ts-tubiao_categoryDefault</title>
<path d="M12.979 3.558h-7.859c-1.229 0-2.24 1.011-2.24 2.24v7.859c0 1.229 1.011 2.24 2.24 2.24h7.859c1.229 0 2.24-1.011 2.24-2.24v-7.859c0-1.229-0.998-2.24-2.24-2.24zM13.299 13.67c0 0.179-0.141 0.32-0.32 0.32h-7.859c-0.179 0-0.32-0.141-0.32-0.32v-7.872c0-0.179 0.141-0.32 0.32-0.32h7.859c0.179 0 0.32 0.141 0.32 0.32v7.872zM26.88 3.558h-7.859c-1.229 0-2.24 1.011-2.24 2.24v7.859c0 1.229 1.011 2.24 2.24 2.24h7.859c1.229 0 2.24-1.011 2.24-2.24v-7.859c0-1.229-1.011-2.24-2.24-2.24zM27.2 13.67c0 0.179-0.141 0.32-0.32 0.32h-7.859c-0.179 0-0.32-0.141-0.32-0.32v-7.872c0-0.179 0.141-0.32 0.32-0.32h7.859c0.179 0 0.32 0.141 0.32 0.32v7.872zM12.979 17.459h-7.859c-1.229 0-2.24 1.011-2.24 2.24v7.859c0 1.229 1.011 2.24 2.24 2.24h7.859c1.229 0 2.24-1.011 2.24-2.24v-7.859c0-1.229-0.998-2.24-2.24-2.24zM13.299 27.558c0 0.179-0.141 0.32-0.32 0.32h-7.859c-0.179 0-0.32-0.141-0.32-0.32v-7.859c0-0.179 0.141-0.32 0.32-0.32h7.859c0.179 0 0.32 0.141 0.32 0.32v7.859zM26.88 17.459h-7.859c-1.229 0-2.24 1.011-2.24 2.24v7.859c0 1.229 1.011 2.24 2.24 2.24h7.859c1.229 0 2.24-1.011 2.24-2.24v-7.859c0-1.229-1.011-2.24-2.24-2.24zM27.2 27.558c0 0.179-0.141 0.32-0.32 0.32h-7.859c-0.179 0-0.32-0.141-0.32-0.32v-7.859c0-0.179 0.141-0.32 0.32-0.32h7.859c0.179 0 0.32 0.141 0.32 0.32v7.859z"></path>
</svg>
